Coordinates
version=1
nRows=11
nColumns=63
inDegrees=yes

Units are S.I. units (second, meters, Newtons, ...)
If the header above contains a line with 'inDegrees', this indicates whether rotational values are in degrees (yes) or radians (no).

endheader
time	pelvis_tilt	pelvis_list	pelvis_rotation	pelvis_tx	pelvis_ty	pelvis_tz	hip_flexion_r	hip_adduction_r	hip_rotation_r	knee_angle_r	knee_angle_r_beta	ankle_angle_r	subtalar_angle_r	mtp_angle_r	hip_flexion_l	hip_adduction_l	hip_rotation_l	knee_angle_l	knee_angle_l_beta	ankle_angle_l	subtalar_angle_l	mtp_angle_l	L5_S1_Flex_Ext	L5_S1_Lat_Bending	L5_S1_axial_rotation	L4_L5_Flex_Ext	L4_L5_Lat_Bending	L4_L5_axial_rotation	L3_L4_Flex_Ext	L3_L4_Lat_Bending	L3_L4_axial_rotation	L2_L3_Flex_Ext	L2_L3_Lat_Bending	L2_L3_axial_rotation	L1_L2_Flex_Ext	L1_L2_Lat_Bending	L1_L2_axial_rotation	L1_T12_Flex_Ext	L1_T12_Lat_Bending	L1_T12_axial_rotation	Abs_r3	Abs_r2	Abs_r1	Abs_t1	Abs_t2	neck_flexion	neck_bending	neck_rotation	arm_flex_r	arm_add_r	arm_rot_r	elbow_flex_r	pro_sup_r	wrist_flex_r	wrist_dev_r	arm_flex_l	arm_add_l	arm_rot_l	elbow_flex_l	pro_sup_l	wrist_flex_l	wrist_dev_l
0.000000	4.836861	-3.983104	81.877217	0.488702	0.595796	0.665629	6.467792	3.734139	1.421873	12.785444	0.223148	24.330951	2.172847	0.000000	2.575686	-2.900821	-16.266975	10.131159	0.176822	28.405875	5.117369	0.000000	0.249198	0.211858	2.035036	0.462785	0.281772	2.162225	0.409407	0.515112	2.162225	0.284808	0.515112	1.780656	0.231405	0.432022	1.653467	0.142392	0.328169	1.526277	1.779996	2.396584	11.318258	0.000000	0.000000	27.919766	-2.494715	1.702650	16.249216	-5.808095	64.111508	48.016084	1.941876	-13.314279	4.644839	17.357638	-2.078281	92.390979	39.484261	43.141721	0.501650	15.200777
0.020000	4.590467	-4.173758	80.771434	0.490770	0.594807	0.668232	6.804668	3.648027	2.604162	13.077885	0.228252	24.119324	1.803562	0.000000	2.819504	-2.711634	-16.313628	10.226249	0.178482	28.562522	3.916616	0.000000	0.253218	0.175860	2.184858	0.470250	0.233894	2.321411	0.416011	0.427586	2.321411	0.289402	0.427586	1.911751	0.235138	0.358614	1.775197	0.144688	0.272407	1.638643	1.808707	1.989365	12.151523	0.000000	0.000000	27.964253	-2.890180	1.455003	16.372581	-5.999091	63.252968	48.615001	1.738568	-15.583179	5.654911	18.453470	-2.419768	93.173253	39.942263	46.040826	0.385479	15.496824
0.040000	4.426212	-4.318174	79.975396	0.492364	0.593974	0.670410	7.053795	3.604041	3.428514	13.283517	0.231841	24.000391	1.607256	0.000000	3.036076	-2.592823	-16.227611	10.333508	0.180354	28.680922	2.875916	0.000000	0.254618	0.149014	2.284291	0.472851	0.198189	2.427059	0.418311	0.362314	2.427059	0.291003	0.362314	1.998755	0.236438	0.303870	1.855987	0.145489	0.230823	1.713218	1.818709	1.685681	12.704542	0.000000	0.000000	27.998165	-3.227319	1.194264	16.540501	-6.144208	62.743659	49.048803	1.586084	-17.338329	6.559130	19.355507	-2.692828	93.899442	40.318729	48.066191	0.284434	15.704289
0.060000	4.334968	-4.420282	79.457773	0.493527	0.593285	0.672195	7.222090	3.597063	3.932204	13.409652	0.234043	23.959844	1.561402	0.000000	3.225954	-2.536282	-16.027317	10.450101	0.182389	28.764548	1.986011	0.000000	0.253732	0.130365	2.338642	0.471206	0.173385	2.484807	0.416856	0.316968	2.484807	0.289990	0.316968	2.046312	0.235616	0.265839	1.900147	0.144982	0.201935	1.753981	1.812382	1.474710	13.006824	0.000000	0.000000	28.022346	-3.508626	0.926999	16.745048	-6.247874	62.542644	49.334749	1.479072	-18.633110	7.366818	20.080610	-2.903216	94.572786	40.619560	49.307473	0.198515	15.832706
0.080000	4.307611	-4.484016	79.187233	0.494306	0.592729	0.673617	7.316475	3.621972	4.152511	13.463602	0.234984	23.983374	1.643473	0.000000	3.389695	-2.533907	-15.731141	10.573197	0.184537	28.816873	1.237640	0.000000	0.250894	0.118954	2.353215	0.465934	0.158209	2.500291	0.412193	0.289225	2.500291	0.286746	0.289225	2.059064	0.232980	0.242571	1.911988	0.143361	0.184260	1.764912	1.792108	1.345631	13.087879	0.000000	0.000000	28.037641	-3.736594	0.659776	16.978296	-6.314516	62.608984	49.490093	1.412178	-19.520901	8.087300	20.645638	-3.056690	95.196528	40.850662	49.854329	0.127720	15.891604
0.100000	4.335012	-4.513305	79.132448	0.494745	0.592296	0.674707	7.343868	3.673650	4.126713	13.452680	0.234794	24.056672	1.830941	0.000000	3.527851	-2.577590	-15.357479	10.699963	0.186750	28.841370	0.621544	0.000000	0.246436	0.113826	2.333318	0.457656	0.151388	2.479150	0.404870	0.276756	2.479150	0.281652	0.276756	2.041653	0.228840	0.232113	1.895821	0.140813	0.176316	1.749988	1.760267	1.287619	12.977214	0.000000	0.000000	28.044892	-3.913716	0.399160	17.232316	-6.348561	62.901742	49.532092	1.380051	-20.055084	8.729899	21.067452	-3.159006	95.773906	41.017936	49.796419	0.072050	15.890516
0.120000	4.408047	-4.512083	79.262084	0.494890	0.591973	0.675494	7.311187	3.746978	3.892086	13.384199	0.233598	24.165429	2.101279	0.000000	3.640978	-2.659225	-14.924723	10.827566	0.188977	28.841513	0.128463	0.000000	0.240692	0.114023	2.284255	0.446990	0.151651	2.427020	0.395434	0.277236	2.427020	0.275087	0.277236	1.998723	0.223507	0.232516	1.855957	0.137532	0.176622	1.713191	1.719242	1.289854	12.704338	0.000000	0.000000	28.044944	-4.042485	0.151721	17.499182	-6.354437	63.379980	49.478003	1.377337	-20.289038	9.303938	21.362912	-3.215921	96.308162	41.127286	49.223400	0.031503	15.838972
0.140000	4.517587	-4.484282	79.544813	0.494786	0.591750	0.676010	7.225353	3.836835	3.485910	13.265471	0.231526	24.295338	2.431961	0.000000	3.729628	-2.770707	-14.451269	10.953173	0.191169	28.820773	-0.250863	0.000000	0.233996	0.118590	2.211331	0.434555	0.157725	2.349540	0.384433	0.288340	2.349540	0.267434	0.288340	1.934915	0.217289	0.241829	1.796707	0.133706	0.183696	1.658499	1.671413	1.341513	12.298762	0.000000	0.000000	28.038641	-4.125395	-0.075976	17.770965	-6.336570	64.002760	49.345082	1.398685	-20.276143	9.818742	21.548879	-3.233190	96.802537	41.184614	48.224929	0.006079	15.746503
0.160000	4.654507	-4.433832	79.949304	0.494476	0.591615	0.676285	7.093285	3.938102	2.945460	13.103808	0.228705	24.432088	2.800457	0.000000	3.794358	-2.903930	-13.955512	11.073952	0.193277	28.782624	-0.525692	0.000000	0.226681	0.126569	2.119854	0.420970	0.168337	2.252345	0.372415	0.307740	2.252345	0.259074	0.307740	1.854872	0.210496	0.258099	1.722381	0.129526	0.196055	1.589891	1.619161	1.431773	11.789993	0.000000	0.000000	28.026826	-4.164938	-0.277363	18.039739	-6.299388	64.729143	49.150586	1.438741	-20.069781	10.283635	21.642212	-3.216572	97.260272	41.195825	46.890665	-0.004224	15.622641
0.180000	4.809680	-4.364666	80.444225	0.494008	0.591557	0.676350	6.921902	4.045661	2.308016	12.906524	0.225261	24.561372	3.184242	0.000000	3.835720	-3.050787	-13.455846	11.187071	0.195251	28.730540	-0.705286	0.000000	0.219080	0.137004	2.015128	0.406854	0.182215	2.141074	0.359927	0.333111	2.141074	0.250387	0.333111	1.763237	0.203438	0.279378	1.637292	0.125182	0.212219	1.511346	1.564869	1.549812	11.207540	0.000000	0.000000	28.010343	-4.163608	-0.445874	18.297576	-6.247317	65.518192	48.911771	1.492152	-19.723331	10.707939	21.659772	-3.171822	97.684606	41.166822	45.310265	0.000596	15.476917
0.200000	4.973980	-4.280715	80.998247	0.493425	0.591565	0.676235	6.718123	4.154391	1.610855	12.680930	0.221324	24.668881	3.560788	0.000000	3.854270	-3.203173	-12.970665	11.289696	0.197042	28.667992	-0.798904	0.000000	0.211527	0.148937	1.902460	0.392827	0.198087	2.021364	0.347518	0.362126	2.021364	0.241754	0.362126	1.664653	0.196424	0.303713	1.545749	0.120867	0.230704	1.426845	1.510917	1.684808	10.580912	0.000000	0.000000	27.990037	-4.123897	-0.574940	18.536549	-6.184786	66.328970	48.645893	1.553567	-19.290173	11.100979	21.618419	-3.104697	98.078782	41.103506	43.573387	0.020535	15.318862
